<svg width="32" height="81" viewBox="0 0 32 81" fill="none" xmlns="http://www.w3.org/2000/svg">
							<path fill-rule="evenodd" clip-rule="evenodd" d="M15.7197 28.9771C16.3872 28.9771 16.9289 29.5176 16.9289 30.1862V37.4413C16.9289 38.11 16.3872 38.6505 15.7197 38.6505C15.0522 38.6505 14.5105 38.11 14.5105 37.4413V30.1862C14.5105 29.5176 15.0522 28.9771 15.7197 28.9771ZM16.9289 76.8601L20.9192 72.8699C21.161 72.628 21.4029 72.5071 21.7656 72.5071C22.1284 72.5071 22.3702 72.628 22.6121 72.8699C23.0957 73.3547 23.0957 74.079 22.6121 74.5639L16.5661 80.6098C16.3243 80.8517 16.022 80.9714 15.7197 80.9714C15.4174 80.9714 15.1151 80.8517 14.8733 80.6098L8.82738 74.5639C8.34371 74.079 8.34371 73.3547 8.82738 72.8699C9.06922 72.628 9.31106 72.5071 9.67381 72.5071C10.0366 72.5071 10.2784 72.628 10.5202 72.8699L14.5105 76.8601V60.4153C14.5105 59.691 14.9942 59.2061 15.7197 59.2061C16.4452 59.2061 16.9289 59.691 16.9289 60.4153V76.8601ZM11.2986 65.7119C11.9153 65.9404 12.2381 66.6284 12.0265 67.2439C11.8101 67.8666 11.1184 68.2064 10.4884 67.9924C9.11602 67.5075 5.90806 66.1665 3.32404 62.863C0.183796 58.8449 0.00241836 54.533 0 53.1606V30.1861C0.00241836 28.9927 0.146311 23.8464 4.17288 19.497C8.71578 14.5925 14.7097 14.4704 15.7194 14.4668C16.7206 14.4668 22.7495 14.5695 27.2973 19.497C31.3154 23.85 31.4399 28.9987 31.4387 30.1861V53.1606C31.4448 54.5136 31.2851 58.562 28.4206 62.4725C25.7447 66.1254 22.261 67.5341 20.9527 67.9912C20.3263 68.2076 19.6323 67.8727 19.4134 67.2463C19.1958 66.6187 19.5331 65.9247 20.1595 65.7058C21.3179 65.2886 24.0627 64.1218 26.2549 61.2657C28.8378 57.903 29.0119 54.3371 29.0203 53.1606V30.1861C29.0203 29.22 28.9176 24.7436 25.3795 21.0157C21.5391 16.9698 16.573 16.8851 15.7194 16.8851C14.8935 16.8875 9.59122 16.9964 5.71822 21.3893C2.22852 25.347 2.36999 29.9818 2.41836 30.9261V53.1606C2.43045 54.3431 2.61788 57.8002 5.0967 61.1158C7.32159 64.0928 10.1535 65.2959 11.2986 65.7119ZM13.3012 2.41836C13.3012 1.08343 14.3847 0 15.7196 0C17.0545 0 18.138 1.08343 18.138 2.41836C18.138 3.75572 17.0545 4.83672 15.7196 4.83672C14.3847 4.83672 13.3012 3.75572 13.3012 2.41836ZM13.3012 9.67345C13.3012 8.33609 14.3847 7.25509 15.7196 7.25509C17.0545 7.25509 18.138 8.33609 18.138 9.67345C18.138 11.0084 17.0545 12.0918 15.7196 12.0918C14.3847 12.0918 13.3012 11.0084 13.3012 9.67345Z" fill="#fff"></path>
						</svg>